<svg xmlns="http://www.w3.org/2000/svg" width="940" height="406" font-family="-apple-system,Segoe UI,Roboto,sans-serif"><rect width="940" height="406" fill="#ffffff"/><text x="24" y="34" font-size="20" font-weight="700" fill="#2b2f36">Complessità ciclomatica — funzioni più critiche (prima → dopo)</text><text x="24" y="56" font-size="13" fill="#6b7280">Funzioni con CC &gt; 15: 11 → 5  ·  CC massimo: 55 → 37  ·  soglia di rischio = 15</text><rect x="250" y="64" width="13" height="13" rx="2" fill="#D45454"/><text x="269" y="75" font-size="12" fill="#2b2f36">Prima</text><rect x="330" y="64" width="13" height="13" rx="2" fill="#5BA85E"/><text x="349" y="75" font-size="12" fill="#2b2f36">Dopo</text><line x1="250" y1="80" x2="250" y2="366" stroke="#E2E5EA"/><text x="250" y="382" font-size="10" fill="#6b7280" text-anchor="middle">0</text><line x1="405" y1="80" x2="405" y2="366" stroke="#E2E5EA"/><text x="405" y="382" font-size="10" fill="#6b7280" text-anchor="middle">18</text><line x1="560" y1="80" x2="560" y2="366" stroke="#E2E5EA"/><text x="560" y="382" font-size="10" fill="#6b7280" text-anchor="middle">36</text><line x1="715" y1="80" x2="715" y2="366" stroke="#E2E5EA"/><text x="715" y="382" font-size="10" fill="#6b7280" text-anchor="middle">54</text><line x1="870" y1="80" x2="870" y2="366" stroke="#E2E5EA"/><text x="870" y="382" font-size="10" fill="#6b7280" text-anchor="middle">72</text><line x1="380.0699300699301" y1="80" x2="380.0699300699301" y2="366" stroke="#E8B84B" stroke-dasharray="5 4" stroke-width="1.5"/><text x="384.0699300699301" y="76" font-size="10" fill="#9a7b1f">soglia 15</text><text x="240" y="108" font-size="12.5" fill="#2b2f36" text-anchor="end">Cassa (componente)</text><rect x="250" y="89" width="476.9230769230769" height="14" rx="2" fill="#D45454"/><text x="732.9230769230769" y="100" font-size="11" font-weight="700" fill="#D45454">55</text><rect x="250" y="107" width="60.69930069930069" height="14" rx="2" fill="#5BA85E"/><text x="316.6993006993007" y="118" font-size="11" font-weight="700" fill="#5BA85E">7</text><text x="240" y="154" font-size="12.5" fill="#2b2f36" text-anchor="end">parsaFlusso (ESC/POS)</text><rect x="250" y="135" width="442.23776223776224" height="14" rx="2" fill="#D45454"/><text x="698.2377622377622" y="146" font-size="11" font-weight="700" fill="#D45454">51</text><rect x="250" y="153" width="95.38461538461536" height="14" rx="2" fill="#5BA85E"/><text x="351.38461538461536" y="164" font-size="11" font-weight="700" fill="#5BA85E">11</text><text x="240" y="200" font-size="12.5" fill="#2b2f36" text-anchor="end">eseguiPredizione</text><rect x="250" y="181" width="182.09790209790208" height="14" rx="2" fill="#D45454"/><text x="438.0979020979021" y="192" font-size="11" font-weight="700" fill="#D45454">21</text><rect x="250" y="199" width="17.342657342657333" height="14" rx="2" fill="#5BA85E"/><text x="273.34265734265733" y="210" font-size="11" font-weight="700" fill="#5BA85E">2</text><text x="240" y="246" font-size="12.5" fill="#2b2f36" text-anchor="end">conferma ordine (handler)</text><rect x="250" y="227" width="173.42657342657344" height="14" rx="2" fill="#D45454"/><text x="429.42657342657344" y="238" font-size="11" font-weight="700" fill="#D45454">20</text><rect x="250" y="245" width="86.71328671328672" height="14" rx="2" fill="#5BA85E"/><text x="342.7132867132867" y="256" font-size="11" font-weight="700" fill="#5BA85E">10</text><text x="240" y="292" font-size="12.5" fill="#2b2f36" text-anchor="end">salva aggregata (Admin)</text><rect x="250" y="273" width="164.75524475524475" height="14" rx="2" fill="#D45454"/><text x="420.75524475524475" y="284" font-size="11" font-weight="700" fill="#D45454">19</text><rect x="250" y="291" width="86.71328671328672" height="14" rx="2" fill="#5BA85E"/><text x="342.7132867132867" y="302" font-size="11" font-weight="700" fill="#5BA85E">10</text><text x="240" y="338" font-size="12.5" fill="#2b2f36" text-anchor="end">handler POST menu</text><rect x="250" y="319" width="147.4125874125874" height="14" rx="2" fill="#D45454"/><text x="403.4125874125874" y="330" font-size="11" font-weight="700" fill="#D45454">17</text><rect x="250" y="337" width="60.69930069930069" height="14" rx="2" fill="#5BA85E"/><text x="316.6993006993007" y="348" font-size="11" font-weight="700" fill="#5BA85E">7</text></svg>